<svg xmlns="http://www.w3.org/2000/svg" viewBox="0 0 781.07 521.22"><defs><style>.cls-1{fill:#091a16;}.cls-2{fill:#89ca88;}.cls-3{fill:#e11c42;}.cls-4{fill:#e9ea74;}</style></defs><g id="Layer_2" data-name="Layer 2"><g id="Layer_1-2" data-name="Layer 1"><path class="cls-1" d="M675.59,6.81Q673.93,29.33,673,42.76c-.63,9-1.1,16.17-1.32,21.53s-.51,9.43-.7,12.18-.28,5.36-.28,7.85l-3.09.44c-.82-2.4-1.77-4.86-2.81-7.41s-2.61-6.4-4.57-11.45q-1.56-3.92-3.69-9.2.66-8.81,1.45-19.78Z"/><polygon class="cls-1" points="655.47 160.5 637.87 190.62 584.39 78.67 590.04 69.03 583.48 29.48 588.65 20.62 655.47 160.5"/><polygon class="cls-1" points="721.75 237.72 704.15 267.84 651.91 275.19 669.47 245.07 721.75 237.72"/><polygon class="cls-1" points="669.47 245.07 651.91 275.19 637.87 190.62 655.47 160.5 669.47 245.07"/><polygon class="cls-1" points="590.04 69.03 584.39 78.67 572.44 99.14 557.69 101.22 553.21 74.2 580.42 70.38 590.04 69.03"/><polygon class="cls-1" points="504.68 81.01 487.08 111.15 450.29 116.32 467.88 86.18 504.68 81.01"/><polygon class="cls-1" points="467.88 86.18 450.29 116.32 448.39 104.94 458.58 87.5 452.37 49.85 459.78 37.15 467.88 86.18"/><polygon class="cls-1" points="583.51 257.15 565.92 287.26 517.39 294.07 534.98 263.96 583.51 257.15"/><polygon class="cls-1" points="534.98 263.96 517.39 294.07 487.08 111.15 504.68 81.01 534.98 263.96"/><polygon class="cls-1" points="458.58 87.5 448.39 104.94 441.01 117.62 426.29 119.7 421.81 92.67 445.81 89.3 458.58 87.5"/><polygon class="cls-1" points="336.49 104.66 331.88 112.54 320.25 69.53 328.35 55.62 336.49 104.66"/><polygon class="cls-1" points="373.25 99.48 355.69 129.6 337.21 132.19 331.88 112.54 336.49 104.66 373.25 99.48"/><polygon class="cls-1" points="403.59 282.44 385.99 312.55 355.69 129.6 373.25 99.48 403.59 282.44"/><polygon class="cls-1" points="452.12 275.63 434.52 305.74 385.99 312.55 403.59 282.44 452.12 275.63"/><polygon class="cls-1" points="315.86 239.9 298.27 270.01 294.96 270.49 292.34 243.21 315.86 239.9"/><polygon class="cls-1" points="378.83 285.91 361.24 316.02 311.13 323.08 328.73 292.94 378.83 285.91"/><polygon class="cls-1" points="328.73 292.94 311.13 323.08 298.27 270.01 315.86 239.9 328.73 292.94"/><polygon class="cls-1" points="248.63 304.19 231.04 334.34 230.44 323.75 241.22 305.24 223.28 197.93 217.67 98.82 235.26 68.71 248.63 304.19"/><polygon class="cls-1" points="297.51 297.35 279.92 327.47 231.04 334.34 248.63 304.19 297.51 297.35"/><polygon class="cls-1" points="134.17 82.9 126.73 187.15 124.55 187.43 113.33 158.74 116.58 113.04 134.17 82.9"/><polygon class="cls-1" points="196.7 311.51 179.14 341.62 164.69 254.4 171.47 176.14 171.79 172.64 173.68 172.39 196.7 311.51"/><polygon class="cls-1" points="241.22 305.24 230.44 323.74 223.66 335.38 179.14 341.62 196.7 311.51 229.5 306.87 241.22 305.24"/><polygon class="cls-1" points="137.92 319.77 120.36 349.88 94.66 291.39 77.95 190.42 77.67 188.72 77.57 188.22 77.19 185.95 79.05 185.69 137.92 319.77"/><polygon class="cls-1" points="159.27 316.78 141.71 346.89 120.36 349.88 137.92 319.77 159.27 316.78"/><polygon class="cls-1" points="100.24 325.07 82.65 355.18 38.41 361.4 56 331.28 100.24 325.07"/><polygon class="cls-1" points="56 331.28 38.41 361.4 0 129.41 17.56 99.3 56 331.28"/><path class="cls-2" d="M707.62,152.52l14.13,85.2-52.28,7.35-14-84.57L588.65,20.62l-.25-1.54,50.07-7q8.56,21,13.66,33.67c1.64,4,3.09,7.7,4.41,11q2.13,5.29,3.69,9.2c2,5,3.5,8.86,4.57,11.45s2,5,2.81,7.41l3.09-.44q0-3.73.28-7.85c.19-2.75.41-6.81.7-12.18s.69-12.55,1.32-21.53,1.48-20.94,2.59-35.95L724.12,0l.25,1.55Z"/><polygon class="cls-2" points="557.69 101.22 583.51 257.15 534.98 263.96 504.68 81.01 467.88 86.18 459.78 37.15 581.9 19.99 583.23 27.94 583.48 29.48 590.04 69.03 580.42 70.38 553.21 74.2 557.69 101.22"/><polygon class="cls-2" points="426.29 119.7 452.12 275.63 403.59 282.44 373.25 99.48 336.49 104.66 328.35 55.62 450.48 38.47 452.37 49.85 458.58 87.5 445.81 89.3 421.81 92.67 426.29 119.7"/><path class="cls-2" d="M337.21,132.18l-5.33-19.64-11.63-43-3.35-12.3L235.27,68.71l13.37,235.48,48.87-6.84L295,270.49l-2.62-27.28,23.52-3.31,12.87,53,50.1-7ZM286.73,196l-5.49-76.85-.19-2.52-.16-2-.19-2.8,3.41-.48,21.79,81.93Z"/><polygon class="cls-1" points="305.9 193.32 286.73 196 281.24 119.16 281.05 116.64 280.89 114.68 280.7 111.88 284.11 111.4 305.9 193.32"/><polygon class="cls-2" points="241.22 305.24 229.5 306.87 196.7 311.51 173.68 172.39 171.79 172.64 171.47 176.14 164.69 254.4 159.27 316.78 137.92 319.77 79.05 185.69 77.19 185.95 77.57 188.22 77.67 188.72 77.95 190.42 94.66 291.39 100.24 325.07 56 331.28 17.56 99.3 86.24 89.65 113.33 158.73 124.55 187.43 126.73 187.15 134.17 82.9 202.47 73.31 223.28 197.93 241.22 305.24"/><polygon class="cls-1" points="736.27 310.25 735.09 310.41 716.77 280.24 716.37 277.79 727.69 258.39 736.27 310.25"/><polygon class="cls-3" points="715.88 330.89 714.92 332.51 714.68 331.05 715.88 330.89"/><polygon class="cls-1" points="781.07 403.65 769.75 423.03 753.44 425.32 764.76 405.94 781.07 403.65"/><polygon class="cls-1" points="764.76 405.94 753.44 425.32 722.41 377.68 714.92 332.51 715.88 330.89 764.76 405.94"/><polygon class="cls-4" points="715.88 330.89 714.68 331.05 714.92 332.51 722.41 377.68 727.95 411.12 699.5 415.12 674.77 265.83 705.41 261.53 716.77 280.24 735.09 310.41 736.27 310.25 727.69 258.39 756.34 254.37 781.07 403.65 764.76 405.94 715.88 330.89"/><polygon class="cls-1" points="727.95 411.12 716.63 430.5 688.18 434.49 699.5 415.12 727.95 411.12"/><path class="cls-1" d="M699.5,415.11l-11.32,19.38-4.52-27.29a39.42,39.42,0,0,0,2.07-7.61,60.65,60.65,0,0,0,.48-11.26q-.27-7-1.7-18.22t-4.36-28.75q-2.89-17.57-5.14-28.55c-1.48-7.33-2.9-13.23-4.26-17.76a58.67,58.67,0,0,0-4.08-10.51c-.44-.83-.93-1.64-1.42-2.41l9.52-16.3Z"/><path class="cls-1" d="M640.23,303.17l-11.32,19.4a5.8,5.8,0,0,0-2.86-2.54,3.15,3.15,0,0,0-.69-.18c-.18-1.54-.34-2.92-.47-4.12q-.42-4.5-.48-6.7a14.06,14.06,0,0,1,.3-3.67,5.07,5.07,0,0,1,.59-1.82,4.44,4.44,0,0,1,.55-.74,2.42,2.42,0,0,1,.32-.32,3,3,0,0,1,.37-.3,17.14,17.14,0,0,1,10.81-1.53A5.8,5.8,0,0,1,640.23,303.17Z"/><path class="cls-3" d="M597,283.49a24.71,24.71,0,0,0-1.62,3.39l-11.32,19.37a23,23,0,0,1,1.64-3.38Z"/><path class="cls-1" d="M652.08,364.37l-11.3,19.38q-1.12-7.44-3.12-19.44-2-12.42-3.41-19.91c-.89-5-1.64-8.95-2.27-11.89a50.54,50.54,0,0,0-1.69-6.51c-.51-1.42-1-2.56-1.38-3.43l11.32-19.4c.41.89.88,2,1.38,3.45a50.54,50.54,0,0,1,1.69,6.51q.94,4.42,2.27,11.89T649,344.91Q651,357,652.08,364.37Z"/><path class="cls-1" d="M654.21,382.73c0,1.48-.1,2.7-.2,3.67l-1.66,2.86a1,1,0,0,1-.27.23,13,13,0,0,1-5.25,1.54,16.46,16.46,0,0,1-5,.12c-.29-2.13-.65-4.6-1.06-7.4l11.3-19.38c.76,4.95,1.32,8.86,1.65,11.77A46.56,46.56,0,0,1,654.21,382.73Z"/><path class="cls-3" d="M654,386.4a5.91,5.91,0,0,1-.26.9,1.52,1.52,0,0,1-.27.54,1.41,1.41,0,0,1-.18.37,3.58,3.58,0,0,1-.95,1.05Z"/><path class="cls-4" d="M601.11,406.94a32.63,32.63,0,0,1-3.47,14.16c-.16.33-.34.63-.52.93a2.39,2.39,0,0,1-.13.21c-.26.42-.54.83-.83,1.23s-.71.94-1.09,1.38-.75.86-1.18,1.28-.61.61-.95.9l-.71.6c-.25.21-.51.41-.77.61l-.43.31c-.14.1-.29.22-.43.3-.32.22-.65.45-1,.65s-.85.53-1.3.77l-.22.12c-.17.08-.33.19-.51.27l-.06,0s-.06,0-.08,0l-.12.06-1.12.55a68.32,68.32,0,0,1-18.63,4.91Q548.9,438.9,539,433.13t-12.82-23.31c-.63-3.82-1.18-7.69-1.62-11.59a44.82,44.82,0,0,1-.25-9.55l6.43-.9L550.35,385a7.24,7.24,0,0,0,0,2.62c.14.89.3,1.89.48,2.92l-2,3.37a29.7,29.7,0,0,1,3,1.71,18.52,18.52,0,0,0,2.72,6.63,6,6,0,0,0,3.61,2.13,13,13,0,0,0,4.69,0c4-.55,6.45-1.89,7.38-4s.92-6.27-.14-12.58c-.63-3.81-1.72-6.61-3.23-8.42a20.84,20.84,0,0,0-6.71-4.91,75.93,75.93,0,0,0-8.38-3.26q-4.41-1.41-8.79-2.6c-2.92-.79-5.74-1.73-8.5-2.74a35.2,35.2,0,0,1-7.55-3.9c-4.71-3-8-7.48-9.88-13.53a183.45,183.45,0,0,1-5.28-23.86,78.62,78.62,0,0,1-1.23-17.9c0-.55.08-1.07.14-1.6s.14-1,.22-1.54.12-.71.2-1.06.15-.71.23-1.05.24-1,.4-1.44.31-1,.49-1.42l.3-.76c.09-.2.17-.4.27-.6l.3-.61a1,1,0,0,1,.08-.19,21.42,21.42,0,0,1,1.3-2.19,23.45,23.45,0,0,1,10.29-8,70.81,70.81,0,0,1,18-4.57,79.23,79.23,0,0,1,17.29-.81,26.31,26.31,0,0,1,12.13,3.86,22,22,0,0,1,7.95,9.27,51.9,51.9,0,0,1,3.9,12.19c.22,1.08.45,2.18.63,3.31.67,4.08,1.09,7.33,1.28,9.7a24.1,24.1,0,0,1-.25,6.51l-4.26.59-21.61,3.05a18.61,18.61,0,0,0-.24-2.7c-.12-.73-.33-2-.63-3.86-.77-4.58-1.85-7.71-3.27-9.31s-4.06-2.17-7.91-1.62a13.16,13.16,0,0,0-1.38.24c-.43.08-.81.18-1.18.26a12,12,0,0,0-1.78.69,5.41,5.41,0,0,0-.63.35.7.7,0,0,0-.16.1,2.4,2.4,0,0,0-.57.45l0,0a1.66,1.66,0,0,0-.49.46c-.06,0-.1.08-.1.12a2.7,2.7,0,0,0-.31.43s0,0-.06.08a2.77,2.77,0,0,0-.24.49q-1.15,2.89,0,9.8a29.15,29.15,0,0,0,1.64,6.23,9.72,9.72,0,0,0,1.59,2.7,10.13,10.13,0,0,0,2.09,1.84,17.11,17.11,0,0,0,4.18,2.21c1.17.49,2.33.94,3.45,1.34,1.92.73,3.77,1.34,5.53,1.85l7.7,2.25,5.43,1.59c.45.14.9.26,1.32.38a49.19,49.19,0,0,1,6.52,2.52c1.31.71,2.57,1.46,3.75,2.25.95.63,1.87,1.28,2.74,2a20.39,20.39,0,0,1,5.13,6.35A54.57,54.57,0,0,1,596,369a131.05,131.05,0,0,1,3.37,15.38A109.8,109.8,0,0,1,601.11,406.94Z"/><path class="cls-1" d="M616.92,416.82,605.6,436.2a40.84,40.84,0,0,1-4.61-6.9,52.58,52.58,0,0,1-3.35-8.2,32.63,32.63,0,0,0,3.47-14.16,109.8,109.8,0,0,0-1.78-22.55A131.05,131.05,0,0,0,596,369a54.57,54.57,0,0,0-4-10.12,20.39,20.39,0,0,0-5.13-6.35c-.87-.69-1.79-1.34-2.74-2-.37-2.54-.69-4.87-1-7-.53-4.14-1-7.87-1.24-11.16l3.85-6.6a24.1,24.1,0,0,0,.25-6.51c-.19-2.37-.61-5.62-1.28-9.7-.18-1.13-.41-2.23-.63-3.31l11.32-19.37a47,47,0,0,0-2.15,8,54.41,54.41,0,0,0-.49,11.16q.25,7,1.69,18.14t4.34,28.63q2.9,17.57,5.13,28.65c1.51,7.39,3,13.33,4.29,17.86a58.81,58.81,0,0,0,4.11,10.63A38.75,38.75,0,0,0,616.92,416.82Z"/><path class="cls-1" d="M681.75,411.3l-11.2,19.22a21.44,21.44,0,0,1-2,2.8,21.69,21.69,0,0,1-6,4.68,38.66,38.66,0,0,1-9,3.39,117.29,117.29,0,0,1-12.43,2.33c-9.68,1.36-17.17,1.53-22.43.43a21.8,21.8,0,0,1-13-7.95l11.32-19.38a21.79,21.79,0,0,0,13,7.95c5.25,1.08,12.74.94,22.4-.42A114.93,114.93,0,0,0,664.79,422a38.65,38.65,0,0,0,9-3.41,21.19,21.19,0,0,0,6-4.66A17,17,0,0,0,681.75,411.3Z"/><path class="cls-4" d="M686.21,388.33q-.27-7-1.7-18.22t-4.36-28.75q-2.89-17.57-5.14-28.55c-1.48-7.33-2.9-13.23-4.26-17.76a58.67,58.67,0,0,0-4.08-10.51c-.44-.83-.93-1.64-1.42-2.41a54.25,54.25,0,0,0-3.2-4.63,22.77,22.77,0,0,0-13-7.85c-5.28-1.14-12.68-1.06-22.24.3a109.39,109.39,0,0,0-12.52,2.38,38.54,38.54,0,0,0-9.13,3.39,19.79,19.79,0,0,0-8.12,7.77,24.71,24.71,0,0,0-1.62,3.39,47,47,0,0,0-2.15,8,54.41,54.41,0,0,0-.49,11.16q.25,7,1.69,18.14t4.34,28.63q2.9,17.57,5.13,28.65c1.51,7.39,3,13.33,4.29,17.86a58.81,58.81,0,0,0,4.11,10.63,38.75,38.75,0,0,0,4.61,6.9,21.79,21.79,0,0,0,13,7.95c5.25,1.08,12.74.94,22.4-.42A114.93,114.93,0,0,0,664.79,422a38.65,38.65,0,0,0,9-3.41,21.19,21.19,0,0,0,6-4.66,17,17,0,0,0,1.89-2.64,20.56,20.56,0,0,0,1.83-3.86,1.13,1.13,0,0,0,.08-.24,39.42,39.42,0,0,0,2.07-7.61A60.65,60.65,0,0,0,686.21,388.33ZM654,386.4a5.91,5.91,0,0,1-.26.9,1.52,1.52,0,0,1-.27.54,1.41,1.41,0,0,1-.18.37,3.58,3.58,0,0,1-.95,1.05,1,1,0,0,1-.27.23,13,13,0,0,1-5.25,1.54,16.46,16.46,0,0,1-5,.12,4,4,0,0,1-.59-.14,4.42,4.42,0,0,1-2.76-2.44,14.61,14.61,0,0,1-1.48-3.4c-.43-1.45-1-3.58-1.67-6.44S633.88,372,633,367.05s-2-11.41-3.31-19.42c-1.38-8.26-2.43-14.92-3.2-19.93-.47-3-.84-5.6-1.12-7.85-.18-1.54-.34-2.92-.47-4.12q-.42-4.5-.48-6.7a14.06,14.06,0,0,1,.3-3.67,5.07,5.07,0,0,1,.59-1.82,4.44,4.44,0,0,1,.55-.74,2.42,2.42,0,0,1,.32-.32,1.86,1.86,0,0,1,.37-.3,17.14,17.14,0,0,1,10.81-1.53,5.8,5.8,0,0,1,2.88,2.52c.41.89.88,2,1.38,3.45a50.54,50.54,0,0,1,1.69,6.51q.94,4.42,2.27,11.89T649,344.91q2,12,3.1,19.46c.76,4.95,1.32,8.86,1.65,11.77a46.56,46.56,0,0,1,.48,6.59C654.19,384.21,654.11,385.43,654,386.4Z"/><path class="cls-1" d="M585.73,325.77l-3.85,6.6-7.45,12.78-1.95.27-5.43-1.59-7.7-2.25c-1.76-.51-3.61-1.12-5.53-1.85l6-10.32,21.61-3.05Z"/><path class="cls-1" d="M559.86,329.41l-6,10.32c-1.12-.4-2.28-.85-3.45-1.34a17.11,17.11,0,0,1-4.18-2.21,10.33,10.33,0,0,0-1.79-3.26,4.84,4.84,0,0,0-1.89-1.28,29.15,29.15,0,0,1-1.64-6.23q-1.12-6.92,0-9.8a2.77,2.77,0,0,1,.24-.49s0-.06.06-.08a5.06,5.06,0,0,1,.31-.43s0-.08.1-.12a1.66,1.66,0,0,1,.49-.46l0,0a2.4,2.4,0,0,1,.57-.45.7.7,0,0,1,.16-.1,5.41,5.41,0,0,1,.63-.35,12,12,0,0,1,1.78-.69c.37-.08.75-.18,1.18-.26a13.16,13.16,0,0,1,1.38-.24c3.85-.55,6.47,0,7.91,1.62s2.5,4.73,3.27,9.31c.3,1.85.51,3.13.63,3.86A18.61,18.61,0,0,1,559.86,329.41Z"/><path class="cls-1" d="M527,362.05l-11.32,19.38a22.51,22.51,0,0,1-2-1.44,17,17,0,0,1-1.48-1.32l2.45-.34-5-30.18-8.18,1.16c-.3-1.7-.6-3.45-.91-5.27a104.42,104.42,0,0,1-1.24-10.9l6.6-11.28-1.64-10,9.19-15.74-.19.36a1,1,0,0,0-.08.19l-.3.61c-.1.2-.18.4-.27.6l-.3.76c-.18.46-.34.93-.49,1.42s-.28.95-.4,1.44-.16.69-.23,1.05-.14.69-.2,1.06-.16,1-.22,1.54-.1,1-.14,1.6a78.62,78.62,0,0,0,1.23,17.9,183.45,183.45,0,0,0,5.28,23.86C519,354.57,522.3,359.09,527,362.05Z"/><path class="cls-1" d="M560.23,374.55l-9.36,16c-.18-1-.34-2-.48-2.92a7.24,7.24,0,0,1,0-2.62l-19.63,2.76c-2.55-.73-5.05-1.56-7.48-2.45a34.77,34.77,0,0,1-7.55-3.9L527,362.05a35.2,35.2,0,0,0,7.55,3.9c2.76,1,5.58,1.95,8.5,2.74s5.85,1.66,8.79,2.6A75.93,75.93,0,0,1,560.23,374.55Z"/><path class="cls-1" d="M570.31,400.46c-.93,2.09-3.39,3.43-7.38,4a13,13,0,0,1-4.69,0,14.05,14.05,0,0,0-2.62-5.56,17.31,17.31,0,0,0-3.71-3.2,29.7,29.7,0,0,0-3-1.71l2-3.37,9.36-16a20.84,20.84,0,0,1,6.71,4.91c1.51,1.81,2.6,4.61,3.23,8.42C571.23,394.19,571.25,398.4,570.31,400.46Z"/><path class="cls-3" d="M551.91,395.64a29.7,29.7,0,0,0-3-1.71l2-3.37v0C551.2,392.49,551.52,394.15,551.91,395.64Z"/><path class="cls-1" d="M597,422.24l-11,18.89a2.09,2.09,0,0,1-.17.28,24,24,0,0,1-10.89,9.32,68.32,68.32,0,0,1-18.63,4.91q-18.69,2.64-28.61-3.13a20.79,20.79,0,0,1-6.47-6l4-6.87-5.5-33.14-6.31.89,10.89-18.68a44.82,44.82,0,0,0,.25,9.55c.44,3.9,1,7.77,1.62,11.59q2.93,17.54,12.82,23.31t28.61,3.13a68.32,68.32,0,0,0,18.63-4.91l1.12-.55.12-.06s.06,0,.08,0l.06,0c.18-.08.34-.19.51-.27l.22-.12a14.31,14.31,0,0,0,1.3-.77c.32-.2.65-.43,1-.65.14-.08.29-.2.43-.3l.43-.31c.26-.2.52-.4.77-.61l.71-.6c.34-.29.65-.59.95-.9s.81-.85,1.18-1.28.75-.91,1.09-1.38S596.73,422.66,597,422.24Z"/><polygon class="cls-1" points="505.89 321.86 499.29 333.14 494.57 341.24 473.34 344.22 470.46 326.83 499.72 322.73 505.89 321.86"/><polygon class="cls-1" points="514.63 378.33 513.66 379.99 503.31 397.7 482.7 400.61 479.81 383.22 512.18 378.67 514.63 378.33"/><polygon class="cls-4" points="525.21 439.61 517.96 440.62 458.71 448.96 434 299.68 500.67 290.31 504.25 311.88 505.89 321.86 499.72 322.73 470.46 326.83 473.34 344.22 474.8 353.05 501.44 349.31 509.62 348.15 514.63 378.33 512.18 378.67 479.81 383.22 482.7 400.61 484.48 411.42 513.4 407.36 519.71 406.47 525.21 439.61"/><polygon class="cls-1" points="525.21 439.61 521.19 446.48 513.88 458.98 447.41 468.34 458.71 448.96 517.96 440.62 525.21 439.61"/><polygon class="cls-1" points="458.71 448.96 447.41 468.34 445.54 457.12 449.56 450.24 426.69 312.16 434 299.68 458.71 448.96"/><polygon class="cls-1" points="402.38 363.23 388.18 365.22 381.49 324.84 392.81 305.46 402.38 363.23"/><polygon class="cls-1" points="407.38 393.4 396.05 412.78 390.78 413.53 387.9 396.14 407.38 393.4"/><polygon class="cls-1" points="449.56 450.24 445.54 457.12 438.26 469.62 406.22 474.12 417.54 454.74 444.53 450.95 449.56 450.24"/><polygon class="cls-1" points="417.54 454.74 406.22 474.12 396.05 412.78 407.38 393.4 417.54 454.74"/><polygon class="cls-4" points="449.56 450.24 444.53 450.95 417.54 454.74 407.38 393.4 387.9 396.14 390.78 413.53 398.04 457.48 366 461.99 341.29 312.71 373.33 308.2 382.88 365.97 388.18 365.22 402.38 363.23 392.81 305.46 424.85 300.96 426.69 312.16 449.56 450.24"/><polygon class="cls-1" points="398.04 457.48 386.74 476.86 354.7 481.36 366 461.99 398.04 457.48"/><polygon class="cls-1" points="366 461.99 354.7 481.36 334.19 357.53 341.53 344.95 337.31 319.5 341.29 312.71 366 461.99"/><polygon class="cls-1" points="341.53 344.95 334.19 357.53 330.21 364.35 320.73 365.69 317.85 348.28 332.32 346.25 341.53 344.95"/><polygon class="cls-1" points="262.93 356.01 259.98 361.06 252.5 333.4 257.71 324.45 262.93 356.01"/><polygon class="cls-1" points="286.61 352.68 275.28 372.06 263.41 373.72 259.98 361.06 262.93 356.01 286.61 352.68"/><polygon class="cls-3" points="229.24 360.33 227.28 363.7 227.05 360.63 229.24 360.33"/><polygon class="cls-1" points="243.26 413.05 230.95 414.79 227.28 363.7 229.24 360.33 243.26 413.05"/><polygon class="cls-1" points="306.1 470.41 294.78 489.79 275.28 372.06 286.61 352.68 306.1 470.41"/><polygon class="cls-1" points="337.35 466 326.05 485.38 294.78 489.79 306.1 470.41 337.35 466"/><polygon class="cls-4" points="320.73 365.69 337.35 466 306.1 470.41 286.61 352.68 262.93 356.01 257.71 324.45 336.3 313.4 337.31 319.5 341.53 344.95 332.32 346.25 317.85 348.28 320.73 365.69"/><polygon class="cls-1" points="249.66 443.04 238.33 462.41 236.22 462.72 234.54 445.14 249.66 443.04"/><polygon class="cls-1" points="290.22 472.64 278.89 492.02 246.65 496.54 257.97 477.16 290.22 472.64"/><polygon class="cls-1" points="257.97 477.16 246.65 496.54 238.33 462.41 249.66 443.04 257.97 477.16"/><polygon class="cls-1" points="206.44 484.41 195.11 503.79 194.73 496.93 201.65 485.08 190.14 416.15 186.51 352.25 197.81 332.86 206.44 484.41"/><polygon class="cls-1" points="237.87 479.99 226.54 499.36 195.11 503.79 206.44 484.41 237.87 479.99"/><path class="cls-4" d="M263.41,373.72,260,361.06,252.5,333.4l-2.15-7.91-52.54,7.37,8.63,151.55L237.87,480l-1.65-17.26-1.68-17.57L249.66,443,258,477.16l32.25-4.52ZM231,414.79l-3.68-51.09-.22-3.07,2.19-.3,14,52.72Z"/><polygon class="cls-3" points="158.16 399.57 156.78 401.95 156.97 399.73 158.16 399.57"/><polygon class="cls-1" points="132.76 342.01 127.99 409.07 126.59 409.25 119.35 390.79 121.44 361.38 132.76 342.01"/><polygon class="cls-3" points="97.27 408.13 96.34 409.74 96.09 408.3 97.27 408.13"/><polygon class="cls-1" points="173 489.12 161.67 508.49 152.4 452.49 156.78 401.95 158.16 399.57 173 489.12"/><polygon class="cls-1" points="135.19 494.41 123.87 513.81 107.33 476.17 96.34 409.74 97.27 408.13 135.19 494.41"/><polygon class="cls-1" points="82.48 501.84 71.16 521.22 46.42 371.94 57.74 352.56 82.48 501.84"/><polygon class="cls-4" points="201.65 485.08 194.12 486.13 173 489.12 158.16 399.57 156.97 399.73 156.78 401.95 152.4 452.49 148.93 492.48 135.19 494.41 97.27 408.13 96.09 408.3 96.34 409.74 107.33 476.17 110.93 497.82 82.48 501.84 57.74 352.56 101.9 346.35 119.35 390.79 126.59 409.25 127.99 409.07 132.76 342.01 176.73 335.84 190.14 416.15 201.65 485.08"/></g></g></svg>